<svg width="40" height="40" viewBox="0 0 40 40" fill="none" xmlns="http://www.w3.org/2000/svg">
<rect width="40" height="40" rx="5" fill="#BED6DD"/>
<path d="M27.2679 10.7867C25.2179 9.76672 22.7093 9.16675 20 9.16675C17.2907 9.16675 14.7821 9.76672 12.7321 10.7867C11.7268 11.2869 11.2241 11.537 10.7371 12.3234C10.25 13.1097 10.25 13.8711 10.25 15.3939V19.1736C10.25 25.3306 15.1709 28.7538 18.0208 30.22C18.8156 30.629 19.213 30.8334 20 30.8334C20.787 30.8334 21.1844 30.629 21.9791 30.22C24.8291 28.7538 29.75 25.3306 29.75 19.1736V15.3939C29.75 13.8711 29.75 13.1097 29.2629 12.3234C28.7759 11.537 28.2732 11.2869 27.2679 10.7867Z" stroke="#8FBAC7" stroke-width="1.5" stroke-linecap="round" stroke-linejoin="round"/>
<path d="M20.0001 16.7502V17.8335M18.9167 17.2918C18.9167 17.5792 19.0309 17.8547 19.2341 18.0578C19.4372 18.2611 19.7128 18.3751 20.0001 18.3751C20.2874 18.3751 20.563 18.2611 20.7661 18.0578C20.9692 17.8547 21.0834 17.5792 21.0834 17.2918C21.0834 17.0045 20.9692 16.729 20.7661 16.5258C20.563 16.3226 20.2874 16.2085 20.0001 16.2085C19.7128 16.2085 19.4372 16.3226 19.2341 16.5258C19.0309 16.729 18.9167 17.0045 18.9167 17.2918Z" stroke="#8FBAC7" stroke-width="1.5" stroke-linecap="round" stroke-linejoin="round"/>
<path d="M20.8125 22.1667H19.1875L20 18.375L20.8125 22.1667Z" stroke="#8FBAC7" stroke-width="1.5" stroke-linecap="round" stroke-linejoin="round"/>
</svg>
