<svg width="130" height="48" viewBox="0 0 130 48" fill="none" xmlns="http://www.w3.org/2000/svg">
<rect x="0.5" y="0.5" width="129" height="47" rx="4.5" stroke="#8FBAC7"/>
<g clip-path="url(#clip0_1_4946)">
<path d="M78.056 32.9381C77.572 34.0561 76.9992 35.0852 76.3355 36.0313C75.4309 37.3212 74.6901 38.214 74.1193 38.7098C73.2344 39.5236 72.2863 39.9403 71.271 39.9641C70.5421 39.9641 69.6631 39.7566 68.64 39.3359C67.6134 38.9172 66.67 38.7098 65.8075 38.7098C64.9028 38.7098 63.9326 38.9172 62.8948 39.3359C61.8554 39.7566 61.0181 39.9759 60.3779 39.9976C59.4043 40.0391 58.4339 39.6105 57.4652 38.7098C56.847 38.1705 56.0736 37.2461 55.1473 35.9365C54.1533 34.538 53.3361 32.9164 52.696 31.0675C52.0104 29.0706 51.6667 27.1368 51.6667 25.2646C51.6667 23.1201 52.1301 21.2705 53.0582 19.7205C53.7877 18.4755 54.7581 17.4934 55.9727 16.7725C57.1873 16.0515 58.4996 15.6841 59.9129 15.6606C60.6862 15.6606 61.7003 15.8998 62.9605 16.3699C64.2172 16.8416 65.0241 17.0808 65.3778 17.0808C65.6423 17.0808 66.5387 16.8011 68.0582 16.2435C69.4952 15.7264 70.708 15.5122 71.7016 15.5966C74.3938 15.8139 76.4165 16.8752 77.7616 18.7872C75.3538 20.2461 74.1627 22.2895 74.1864 24.9109C74.2082 26.9527 74.9489 28.6518 76.4046 30.0009C77.0644 30.627 77.8011 31.111 78.6209 31.4547C78.4431 31.9702 78.2555 32.464 78.056 32.9381ZM71.8813 8.64055C71.8813 10.2409 71.2967 11.7352 70.1313 13.1182C68.7249 14.7624 67.0238 15.7125 65.1791 15.5626C65.1556 15.3706 65.142 15.1685 65.142 14.9562C65.142 13.4199 65.8108 11.7757 66.9985 10.4313C67.5915 9.75064 68.3456 9.18467 69.2602 8.73319C70.1727 8.28844 71.0359 8.04248 71.8478 8.00037C71.8715 8.21431 71.8813 8.42827 71.8813 8.64053V8.64055Z" fill="black"/>
</g>
<defs>
<clipPath id="clip0_1_4946">
<rect width="32" height="32" fill="white" transform="translate(49 8)"/>
</clipPath>
</defs>
</svg>
