<svg width="32" height="33" viewBox="0 0 32 33" fill="none" xmlns="http://www.w3.org/2000/svg">
<g filter="url(#filter0_f_1_4936)">
<path d="M0.473114 17.1462C0.48884 19.5082 1.16189 21.9453 2.18065 23.9126V23.9261C2.91676 25.3548 3.92281 26.4834 5.06868 27.6016L11.9894 25.0764C10.6801 24.4112 10.4803 24.0037 9.54168 23.26C8.58251 22.2928 7.86763 21.1825 7.42243 19.8806H7.4045L7.42243 19.867C7.12954 19.0073 7.10065 18.0947 7.08985 17.1462H0.473114Z" fill="url(#paint0_radial_1_4936)"/>
</g>
<g filter="url(#filter1_f_1_4936)">
<path d="M15.8355 2.11072C15.1515 4.51387 15.413 6.84982 15.8355 8.20897C16.6255 8.20956 17.3864 8.30372 18.1079 8.4913C19.7621 8.92134 20.932 9.76832 21.6489 10.4383L26.0857 6.09345C23.4574 3.68354 20.2943 2.11451 15.8355 2.11072Z" fill="url(#paint1_radial_1_4936)"/>
</g>
<g filter="url(#filter2_f_1_4936)">
<path d="M15.8207 2.0918C12.4654 2.09172 9.3677 3.13713 6.82921 4.90391C5.88666 5.55992 5.02171 6.31771 4.25152 7.16039C4.04976 9.0533 5.76193 11.3799 9.15256 11.3606C10.7977 9.44697 13.2308 8.20884 15.9388 8.20884C15.9413 8.20884 15.9437 8.20905 15.9461 8.20906L15.8355 2.09223C15.8305 2.09223 15.8257 2.0918 15.8207 2.0918Z" fill="url(#paint2_radial_1_4936)"/>
</g>
<g filter="url(#filter3_f_1_4936)">
<path d="M26.895 17.8311L23.9002 19.8885C23.7688 20.6954 23.4735 21.4891 23.0413 22.2128C22.5462 23.042 21.9342 23.6733 21.3068 24.154C19.4314 25.5911 17.2462 25.887 15.725 25.8882C14.1526 28.5662 13.877 29.9076 15.8356 32.069C18.2591 32.0672 20.4077 31.6297 22.3029 30.8104C23.6728 30.2182 24.8866 29.4458 25.9855 28.4531C27.4376 27.1414 28.575 25.5189 29.3512 23.6522C30.1274 21.7856 30.5424 19.6748 30.5424 17.3862L26.895 17.8311Z" fill="url(#paint3_radial_1_4936)"/>
</g>
<g filter="url(#filter4_f_1_4936)">
<path d="M15.6143 14.0791V20.2133H30.0231C30.1499 19.3732 30.569 18.2861 30.569 17.3861C30.569 16.3344 30.4634 15.0498 30.2843 14.0791H15.6143Z" fill="#3086FF"/>
</g>
<g filter="url(#filter5_f_1_4936)">
<path d="M4.32027 6.94385C3.4311 7.91672 2.67147 9.00564 2.06918 10.1833C1.03588 12.1974 0.470093 14.6459 0.470093 17.0457C0.470093 17.0795 0.472892 17.1126 0.473117 17.1463C0.930737 18.0237 6.7943 17.8557 7.08985 17.1463C7.08948 17.1132 7.08575 17.0809 7.08575 17.0478C7.08575 16.0635 7.25204 15.338 7.55514 14.4481C7.92905 13.3505 8.51452 12.3398 9.26317 11.4689C9.43288 11.2522 9.88556 10.7864 10.0176 10.5071C10.0679 10.4006 9.92629 10.3409 9.91837 10.3034C9.90951 10.2616 9.7196 10.2952 9.67705 10.264C9.54196 10.1649 9.27446 10.1132 9.11202 10.0672C8.76483 9.9689 8.18942 9.75211 7.86983 9.52738C6.8596 8.817 5.28304 7.96847 4.32027 6.94385Z" fill="url(#paint4_radial_1_4936)"/>
</g>
<g filter="url(#filter6_f_1_4936)">
<path d="M7.89153 10.3077C10.2342 11.7268 10.9079 9.59147 12.4654 8.92328L9.75602 3.30481C8.75937 3.7237 7.81773 4.24413 6.94404 4.85221C5.63926 5.76034 4.48703 6.86851 3.53522 8.12962L7.89153 10.3077Z" fill="url(#paint5_radial_1_4936)"/>
</g>
<g filter="url(#filter7_f_1_4936)">
<path d="M8.84499 24.6425C5.70033 25.7777 5.20801 25.8185 4.91855 27.7673C5.4717 28.3071 6.06603 28.8064 6.69759 29.2591C8.39226 30.4739 11.6521 32.0918 15.8211 32.0918C15.826 32.0918 15.8307 32.0914 15.8356 32.0914V25.7802C15.8324 25.7802 15.8288 25.7804 15.8256 25.7804C14.2645 25.7804 13.017 25.3703 11.7379 24.6573C11.4225 24.4815 10.8503 24.9536 10.5595 24.7425C10.1583 24.4514 9.19293 24.9933 8.84499 24.6425Z" fill="url(#paint6_radial_1_4936)"/>
</g>
<g opacity="0.5" filter="url(#filter8_f_1_4936)">
<path d="M13.9939 25.5812V31.9818C14.5772 32.0501 15.1842 32.0916 15.8211 32.0916C16.4595 32.0916 17.0771 32.0588 17.6772 31.9985V25.6243C17.0047 25.7393 16.3712 25.7802 15.8256 25.7802C15.1972 25.7802 14.586 25.707 13.9939 25.5812Z" fill="url(#paint7_linear_1_4936)"/>
</g>
<defs>
<filter id="filter0_f_1_4936" x="0.0030652" y="16.6762" width="12.4565" height="11.3955" filterUnits="userSpaceOnUse" color-interpolation-filters="sRGB">
<feFlood flood-opacity="0" result="BackgroundImageFix"/>
<feBlend mode="normal" in="SourceGraphic" in2="BackgroundImageFix" result="shape"/>
<feGaussianBlur stdDeviation="0.23504" result="effect1_foregroundBlur_1_4936"/>
</filter>
<filter id="filter1_f_1_4936" x="14.9449" y="1.64064" width="11.6109" height="9.26767" filterUnits="userSpaceOnUse" color-interpolation-filters="sRGB">
<feFlood flood-opacity="0" result="BackgroundImageFix"/>
<feBlend mode="normal" in="SourceGraphic" in2="BackgroundImageFix" result="shape"/>
<feGaussianBlur stdDeviation="0.23504" result="effect1_foregroundBlur_1_4936"/>
</filter>
<filter id="filter2_f_1_4936" x="3.76546" y="1.62172" width="12.6508" height="10.2091" filterUnits="userSpaceOnUse" color-interpolation-filters="sRGB">
<feFlood flood-opacity="0" result="BackgroundImageFix"/>
<feBlend mode="normal" in="SourceGraphic" in2="BackgroundImageFix" result="shape"/>
<feGaussianBlur stdDeviation="0.23504" result="effect1_foregroundBlur_1_4936"/>
</filter>
<filter id="filter3_f_1_4936" x="13.9854" y="16.9162" width="17.0271" height="15.6229" filterUnits="userSpaceOnUse" color-interpolation-filters="sRGB">
<feFlood flood-opacity="0" result="BackgroundImageFix"/>
<feBlend mode="normal" in="SourceGraphic" in2="BackgroundImageFix" result="shape"/>
<feGaussianBlur stdDeviation="0.23504" result="effect1_foregroundBlur_1_4936"/>
</filter>
<filter id="filter4_f_1_4936" x="15.1443" y="13.609" width="15.8948" height="7.07431" filterUnits="userSpaceOnUse" color-interpolation-filters="sRGB">
<feFlood flood-opacity="0" result="BackgroundImageFix"/>
<feBlend mode="normal" in="SourceGraphic" in2="BackgroundImageFix" result="shape"/>
<feGaussianBlur stdDeviation="0.23504" result="effect1_foregroundBlur_1_4936"/>
</filter>
<filter id="filter5_f_1_4936" x="1.34408e-05" y="6.47377" width="10.4984" height="11.7394" filterUnits="userSpaceOnUse" color-interpolation-filters="sRGB">
<feFlood flood-opacity="0" result="BackgroundImageFix"/>
<feBlend mode="normal" in="SourceGraphic" in2="BackgroundImageFix" result="shape"/>
<feGaussianBlur stdDeviation="0.23504" result="effect1_foregroundBlur_1_4936"/>
</filter>
<filter id="filter6_f_1_4936" x="0.230367" y="-4.05312e-05" width="15.5399" height="14.0896" filterUnits="userSpaceOnUse" color-interpolation-filters="sRGB">
<feFlood flood-opacity="0" result="BackgroundImageFix"/>
<feBlend mode="normal" in="SourceGraphic" in2="BackgroundImageFix" result="shape"/>
<feGaussianBlur stdDeviation="1.65243" result="effect1_foregroundBlur_1_4936"/>
</filter>
<filter id="filter7_f_1_4936" x="4.44844" y="24.1471" width="11.8572" height="8.41477" filterUnits="userSpaceOnUse" color-interpolation-filters="sRGB">
<feFlood flood-opacity="0" result="BackgroundImageFix"/>
<feBlend mode="normal" in="SourceGraphic" in2="BackgroundImageFix" result="shape"/>
<feGaussianBlur stdDeviation="0.23504" result="effect1_foregroundBlur_1_4936"/>
</filter>
<filter id="filter8_f_1_4936" x="13.5238" y="25.1111" width="4.62351" height="7.45053" filterUnits="userSpaceOnUse" color-interpolation-filters="sRGB">
<feFlood flood-opacity="0" result="BackgroundImageFix"/>
<feBlend mode="normal" in="SourceGraphic" in2="BackgroundImageFix" result="shape"/>
<feGaussianBlur stdDeviation="0.23504" result="effect1_foregroundBlur_1_4936"/>
</filter>
<radialGradient id="paint0_radial_1_4936" cx="0" cy="0" r="1" gradientTransform="matrix(-0.616264 -14.7688 22.1572 -0.886263 11.8509 27.3791)" gradientUnits="userSpaceOnUse">
<stop offset="0.141612" stop-color="#1ABD4D"/>
<stop offset="0.247515" stop-color="#6EC30D"/>
<stop offset="0.311547" stop-color="#8AC502"/>
<stop offset="0.366013" stop-color="#A2C600"/>
<stop offset="0.445673" stop-color="#C8C903"/>
<stop offset="0.540305" stop-color="#EBCB03"/>
<stop offset="0.615636" stop-color="#F7CD07"/>
<stop offset="0.699345" stop-color="#FDCD04"/>
<stop offset="0.771242" stop-color="#FDCE05"/>
<stop offset="0.860566" stop-color="#FFCE0A"/>
</radialGradient>
<radialGradient id="paint1_radial_1_4936" cx="0" cy="0" r="1" gradientTransform="matrix(10.4659 -2.51532e-05 -1.47102e-05 13.2333 25.6707 10.1239)" gradientUnits="userSpaceOnUse">
<stop offset="0.408458" stop-color="#FB4E5A"/>
<stop offset="1" stop-color="#FF4540"/>
</radialGradient>
<radialGradient id="paint2_radial_1_4936" cx="0" cy="0" r="1" gradientTransform="matrix(-14.6634 7.95154 11.0208 19.4818 19.9552 0.176232)" gradientUnits="userSpaceOnUse">
<stop offset="0.231273" stop-color="#FF4541"/>
<stop offset="0.311547" stop-color="#FF4540"/>
<stop offset="0.457516" stop-color="#FF4640"/>
<stop offset="0.540305" stop-color="#FF473F"/>
<stop offset="0.699346" stop-color="#FF5138"/>
<stop offset="0.771242" stop-color="#FF5B33"/>
<stop offset="0.860566" stop-color="#FF6C29"/>
<stop offset="1" stop-color="#FF8C18"/>
</radialGradient>
<radialGradient id="paint3_radial_1_4936" cx="0" cy="0" r="1" gradientTransform="matrix(-26.5925 -33.9872 -12.8136 9.61058 16.0536 30.1495)" gradientUnits="userSpaceOnUse">
<stop offset="0.131546" stop-color="#0CBA65"/>
<stop offset="0.209784" stop-color="#0BB86D"/>
<stop offset="0.297297" stop-color="#09B479"/>
<stop offset="0.396257" stop-color="#08AD93"/>
<stop offset="0.477124" stop-color="#0AA6A9"/>
<stop offset="0.568425" stop-color="#0D9CC6"/>
<stop offset="0.667385" stop-color="#1893DD"/>
<stop offset="0.768727" stop-color="#258BF1"/>
<stop offset="0.858506" stop-color="#3086FF"/>
</radialGradient>
<radialGradient id="paint4_radial_1_4936" cx="0" cy="0" r="1" gradientTransform="matrix(-1.88189 15.8813 22.4279 2.54759 14.536 4.89277)" gradientUnits="userSpaceOnUse">
<stop offset="0.366013" stop-color="#FF4E3A"/>
<stop offset="0.457516" stop-color="#FF8A1B"/>
<stop offset="0.540305" stop-color="#FFA312"/>
<stop offset="0.615636" stop-color="#FFB60C"/>
<stop offset="0.771242" stop-color="#FFCD0A"/>
<stop offset="0.860566" stop-color="#FECF0A"/>
<stop offset="0.915033" stop-color="#FECF08"/>
<stop offset="1" stop-color="#FDCD01"/>
</radialGradient>
<radialGradient id="paint5_radial_1_4936" cx="0" cy="0" r="1" gradientTransform="matrix(-5.43965 5.89024 -16.9687 -15.0217 11.8896 4.72814)" gradientUnits="userSpaceOnUse">
<stop offset="0.315904" stop-color="#FF4C3C"/>
<stop offset="0.603818" stop-color="#FF692C"/>
<stop offset="0.726837" stop-color="#FF7825"/>
<stop offset="0.884534" stop-color="#FF8D1B"/>
<stop offset="1" stop-color="#FF9F13"/>
</radialGradient>
<radialGradient id="paint6_radial_1_4936" cx="0" cy="0" r="1" gradientTransform="matrix(-14.6634 -7.95154 11.0208 -19.4818 19.9552 33.9173)" gradientUnits="userSpaceOnUse">
<stop offset="0.231273" stop-color="#0FBC5F"/>
<stop offset="0.311547" stop-color="#0FBC5F"/>
<stop offset="0.366013" stop-color="#0FBC5E"/>
<stop offset="0.457516" stop-color="#0FBC5D"/>
<stop offset="0.540305" stop-color="#12BC58"/>
<stop offset="0.699346" stop-color="#28BF3C"/>
<stop offset="0.771242" stop-color="#38C02B"/>
<stop offset="0.860566" stop-color="#52C218"/>
<stop offset="0.915033" stop-color="#67C30F"/>
<stop offset="1" stop-color="#86C504"/>
</radialGradient>
<linearGradient id="paint7_linear_1_4936" x1="13.9939" y1="28.8364" x2="17.6772" y2="28.8364" gradientUnits="userSpaceOnUse">
<stop stop-color="#0FBC5C"/>
<stop offset="1" stop-color="#0CBA65"/>
</linearGradient>
</defs>
</svg>
