<svg width="32" height="32" viewBox="0 0 32 32" fill="none" xmlns="http://www.w3.org/2000/svg">
<g clip-path="url(#clip0_1_4947)">
<path d="M29.056 24.9381C28.572 26.0561 27.9992 27.0852 27.3355 28.0313C26.4309 29.3212 25.6901 30.214 25.1193 30.7098C24.2344 31.5236 23.2863 31.9403 22.271 31.9641C21.5421 31.9641 20.6631 31.7566 19.64 31.3359C18.6134 30.9172 17.67 30.7098 16.8075 30.7098C15.9028 30.7098 14.9326 30.9172 13.8948 31.3359C12.8554 31.7566 12.0181 31.9759 11.3779 31.9976C10.4043 32.0391 9.43386 31.6105 8.4652 30.7098C7.84695 30.1705 7.07364 29.2461 6.14725 27.9365C5.15331 26.538 4.33615 24.9164 3.69597 23.0675C3.01036 21.0706 2.66667 19.1368 2.66667 17.2646C2.66667 15.1201 3.13006 13.2705 4.05823 11.7205C4.78769 10.4755 5.75813 9.49342 6.97271 8.77245C8.18729 8.05149 9.49964 7.68409 10.9129 7.66058C11.6862 7.66058 12.7003 7.89979 13.9605 8.3699C15.2172 8.84159 16.0241 9.08079 16.3778 9.08079C16.6423 9.08079 17.5387 8.80109 19.0582 8.24348C20.4952 7.72636 21.708 7.51224 22.7016 7.59659C25.3938 7.81386 27.4165 8.87516 28.7616 10.7872C26.3538 12.2461 25.1627 14.2895 25.1864 16.9109C25.2082 18.9527 25.9489 20.6518 27.4046 22.0009C28.0644 22.627 28.8011 23.111 29.6209 23.4547C29.4431 23.9702 29.2555 24.464 29.056 24.9381ZM22.8813 0.640549C22.8813 2.24091 22.2967 3.73517 21.1313 5.11824C19.7249 6.76244 18.0238 7.71253 16.1791 7.56261C16.1556 7.37062 16.142 7.16855 16.142 6.95621C16.142 5.41986 16.8108 3.77566 17.9985 2.43131C18.5915 1.75064 19.3456 1.18467 20.2602 0.733187C21.1727 0.28844 22.0359 0.0424849 22.8478 0.000366211C22.8715 0.21431 22.8813 0.428268 22.8813 0.640528V0.640549Z" fill="black"/>
</g>
<defs>
<clipPath id="clip0_1_4947">
<rect width="32" height="32" fill="white"/>
</clipPath>
</defs>
</svg>
