<svg width="72" height="72" viewBox="0 0 72 72" fill="none" xmlns="http://www.w3.org/2000/svg">
<path d="M6 33C6 23.1005 6 18.1507 9.07539 15.0754C12.1508 12 17.1005 12 27 12H30C39.8994 12 44.8491 12 47.9247 15.0754C51 18.1507 51 23.1005 51 33V39C51 48.8994 51 53.8491 47.9247 56.9247C44.8491 60 39.8994 60 30 60H27C17.1005 60 12.1508 60 9.07539 56.9247C6 53.8491 6 48.8994 6 39V33Z" stroke="#8FBAC7" stroke-width="4.5"/>
<path d="M51 26.7176L51.3777 26.4059C57.7251 21.1687 60.8988 18.5501 63.4494 19.8145C66 21.0788 66 25.2707 66 33.6543V38.3457C66 46.7295 66 50.9211 63.4494 52.1856C60.8988 53.4498 57.7251 50.8314 51.3777 45.594L51 45.2823" stroke="#8FBAC7" stroke-width="4.5" stroke-linecap="round"/>
<path d="M34.5 33C36.9853 33 39 30.9853 39 28.5C39 26.0147 36.9853 24 34.5 24C32.0147 24 30 26.0147 30 28.5C30 30.9853 32.0147 33 34.5 33Z" stroke="#8FBAC7" stroke-width="4.5"/>
</svg>
